<svg width="20" height="20" viewBox="0 0 20 20" fill="none" xmlns="http://www.w3.org/2000/svg">
<path d="M3.5 20L16.5 20C18.433 20 20 18.433 20 16.5L20 3.5C20 1.567 18.433 0 16.5 0L3.5 0C1.567 0 0 1.567 0 3.5L0 16.5C0 18.433 1.567 20 3.5 20Z" fill="#8A8E91"/>
<path d="M7.29306 8.23198C7.93452 8.23198 8.45453 7.74911 8.45453 7.15347C8.45453 6.55782 7.93452 6.07495 7.29306 6.07495C6.6516 6.07495 6.13159 6.55782 6.13159 7.15347C6.13159 7.74911 6.6516 8.23198 7.29306 8.23198Z" fill="white"/>
<path d="M12.7133 8.23198C13.3548 8.23198 13.8748 7.74911 13.8748 7.15347C13.8748 6.55782 13.3548 6.07495 12.7133 6.07495C12.0719 6.07495 11.5519 6.55782 11.5519 7.15347C11.5519 7.74911 12.0719 8.23198 12.7133 8.23198Z" fill="white"/>
<path d="M3.69829 14.2737C3.57355 14.2736 3.45112 14.2425 3.3437 14.1836C3.23629 14.1247 3.14779 14.0402 3.0874 13.9388C3.02701 13.8375 2.99692 13.7229 3.00025 13.6071C3.00358 13.4914 3.04021 13.3785 3.10635 13.2803L4.86136 10.674C4.95997 10.5286 5.11663 10.4254 5.297 10.3871C5.47736 10.3488 5.66673 10.3785 5.82359 10.4696C5.98045 10.5607 6.09201 10.7059 6.13381 10.8732C6.17562 11.0406 6.14426 11.2165 6.04662 11.3625L4.2916 13.9688C4.22877 14.0622 4.14131 14.1393 4.0375 14.1926C3.93369 14.246 3.81695 14.2739 3.69829 14.2737Z" fill="white"/>
<path d="M9.99669 14.7232C8.93329 14.726 7.88338 14.5022 6.92776 14.069C5.97213 13.6358 5.13627 13.0049 4.4845 12.2246L5.58646 11.4252C6.10933 12.0477 6.77815 12.5513 7.54209 12.8978C8.30602 13.2443 9.14497 13.4245 9.99516 13.4248C10.8454 13.425 11.6844 13.2453 12.4486 12.8992C13.2128 12.5532 13.8819 12.0499 14.4052 11.4277L15.5065 12.2272C14.8547 13.0066 14.0191 13.6369 13.0639 14.0696C12.1087 14.5023 11.0595 14.7259 9.99669 14.7232Z" fill="white"/>
<path d="M16.3016 14.2737C16.183 14.2739 16.0662 14.246 15.9624 14.1927C15.8586 14.1393 15.7711 14.0623 15.7083 13.9688L13.9533 11.3625C13.8557 11.2165 13.8243 11.0406 13.8661 10.8732C13.9079 10.7059 14.0195 10.5607 14.1763 10.4696C14.3332 10.3785 14.5226 10.3488 14.7029 10.3871C14.8833 10.4254 15.0399 10.5286 15.1386 10.674L16.8936 13.2803C16.9597 13.3785 16.9964 13.4914 16.9997 13.6072C17.003 13.7229 16.9729 13.8375 16.9125 13.9388C16.8521 14.0402 16.7637 14.1247 16.6562 14.1836C16.5488 14.2425 16.4264 14.2736 16.3016 14.2737H16.3016Z" fill="white"/>
</svg>
