<svg width="20" height="20" viewBox="0 0 20 20" fill="none" xmlns="http://www.w3.org/2000/svg">
<path d="M3.5 20L16.5 20C18.433 20 20 18.433 20 16.5L20 3.5C20 1.567 18.433 0 16.5 0L3.5 0C1.567 0 0 1.567 0 3.5L0 16.5C0 18.433 1.567 20 3.5 20Z" fill="#8A8E91"/>
<path d="M10.0014 5.20597C10.8154 5.20597 11.4776 5.87209 11.4776 6.69104C11.4776 7.50711 10.8154 8.17322 10.0014 8.17322C9.18729 8.17322 8.52514 7.50711 8.52514 6.69104C8.52514 5.87209 9.18729 5.20597 10.0014 5.20597ZM10.0014 10.3792C12.0251 10.3792 13.6676 8.72688 13.6676 6.69104C13.6676 4.6552 12.0251 3 10.0014 3C7.97764 3 6.33228 4.6552 6.33228 6.69104C6.33228 8.724 7.97764 10.3792 10.0014 10.3792ZM11.4432 13.1994C12.1684 13.035 12.8678 12.7467 13.5128 12.3372C14.0001 12.0286 14.1463 11.3798 13.8396 10.8896C13.5329 10.3994 12.8879 10.2494 12.4006 10.5609C10.9387 11.4836 9.06117 11.4836 7.60213 10.5609C7.11196 10.2494 6.46701 10.3994 6.16029 10.8896C5.85358 11.3798 5.99977 12.0286 6.48994 12.3372C7.13203 12.7467 7.83431 13.035 8.55953 13.1994L6.56447 15.2064C6.15743 15.6159 6.15743 16.282 6.56733 16.6915C6.77085 16.8962 7.03743 17 7.30402 17C7.5706 17 7.84005 16.8962 8.04357 16.6915L10.0014 14.7219L11.962 16.6915C12.3691 17.1009 13.0284 17.1009 13.4383 16.6915C13.8453 16.282 13.8453 15.6159 13.4383 15.2064L11.4432 13.1994Z" fill="white"/>
</svg>
