<svg width="20" height="20" viewBox="0 0 20 20" fill="none" xmlns="http://www.w3.org/2000/svg">
<path d="M3.5 20L16.5 20C18.433 20 20 18.433 20 16.5L20 3.5C20 1.567 18.433 0 16.5 0L3.5 0C1.567 0 0 1.567 0 3.5L0 16.5C0 18.433 1.567 20 3.5 20Z" fill="#8A8E91"/>
<path d="M14.75 6.50001C15.0483 6.34664 15.3127 6.13479 15.5275 5.87709C15.7422 5.61939 15.9029 5.32111 16 5.00001C15.5 5.50001 14.4375 5.66564 14.4375 5.66564C14.0701 5.21421 13.5567 4.90511 12.9859 4.79163C12.415 4.67816 11.8225 4.76741 11.3104 5.04401C10.7983 5.32061 10.3987 5.76722 10.1806 6.30684C9.96253 6.84646 9.93954 7.44526 10.1156 8.00001H10C8.98166 7.93248 7.98865 7.65299 7.08459 7.17943C6.18053 6.70588 5.38535 6.0487 4.75 5.25001C4.75 5.25001 3.25 7.25001 5.5 8.75001C5.5 8.75001 4.5 8.75001 4.25 8.50001C4.25 8.50001 4 10 6.25 11C6.09301 11.0715 5.92251 11.1085 5.75 11.1085C5.57749 11.1085 5.40699 11.0715 5.25 11C5.25 11.9656 6.25625 12.75 7.5 12.75C7.5 13.4406 5.82188 14 3.75 14C7 16.25 14.75 15.75 15.25 7.25001L16.5 6.00001L14.75 6.50001Z" fill="white"/>
</svg>
