<svg width="20" height="20" viewBox="0 0 20 20" fill="none" xmlns="http://www.w3.org/2000/svg">
<path d="M3.5 20L16.5 20C18.433 20 20 18.433 20 16.5L20 3.5C20 1.567 18.433 0 16.5 0L3.5 0C1.567 0 0 1.567 0 3.5L0 16.5C0 18.433 1.567 20 3.5 20Z" fill="#8A8E91"/>
<path d="M16.9258 13.2249C16.9088 13.1883 16.893 13.1579 16.8783 13.1336C16.6354 12.6955 16.1712 12.1577 15.4861 11.5201L15.4716 11.5055L15.4643 11.4983L15.457 11.491H15.4497C15.1387 11.1941 14.9418 10.9945 14.8593 10.8923C14.7084 10.6976 14.6746 10.5005 14.7571 10.3008C14.8154 10.1499 15.0342 9.83134 15.4131 9.34456C15.6125 9.08658 15.7703 8.87982 15.8869 8.72405C16.7276 7.60458 17.0921 6.88922 16.9803 6.5777L16.9369 6.5049C16.9077 6.46107 16.8324 6.42098 16.711 6.38441C16.5894 6.34793 16.434 6.34189 16.2444 6.36621L14.1452 6.38073C14.1111 6.36866 14.0626 6.36979 13.9993 6.38441C13.9361 6.39904 13.9045 6.40638 13.9045 6.40638L13.868 6.42466L13.839 6.44663C13.8147 6.46115 13.788 6.4867 13.7588 6.52321C13.7297 6.5596 13.7055 6.6023 13.6861 6.65096C13.4575 7.23987 13.1977 7.78741 12.906 8.29354C12.7262 8.59535 12.5611 8.85691 12.4103 9.07837C12.2597 9.29976 12.1333 9.46287 12.0313 9.56743C11.9292 9.67209 11.837 9.75593 11.7543 9.81927C11.6716 9.88264 11.6085 9.90941 11.5649 9.89961C11.5211 9.88982 11.4798 9.8801 11.4408 9.87039C11.3728 9.82656 11.3181 9.76696 11.2769 9.69152C11.2355 9.61609 11.2076 9.52115 11.193 9.40677C11.1785 9.29232 11.17 9.19387 11.1675 9.1111C11.1652 9.02843 11.1663 8.9115 11.1712 8.76064C11.1763 8.6097 11.1785 8.50757 11.1785 8.45402C11.1785 8.26905 11.1821 8.0683 11.1894 7.85171C11.1967 7.63513 11.2027 7.46353 11.2076 7.33711C11.2126 7.21056 11.2149 7.07668 11.2149 6.93553C11.2149 6.79438 11.2063 6.68369 11.1894 6.60335C11.1726 6.52311 11.1469 6.44522 11.113 6.36971C11.0789 6.29428 11.0291 6.23593 10.9636 6.1945C10.898 6.15313 10.8165 6.1203 10.7194 6.0959C10.4618 6.03753 10.1338 6.00595 9.73528 6.00104C8.83147 5.99132 8.25072 6.04978 7.99317 6.17632C7.89112 6.22979 7.79878 6.30284 7.71621 6.39526C7.62872 6.50237 7.61651 6.56082 7.67968 6.57044C7.97129 6.61419 8.17773 6.71885 8.29923 6.88431L8.34302 6.97199C8.37707 7.03526 8.41108 7.14725 8.44511 7.30783C8.47909 7.46842 8.50103 7.64605 8.51068 7.84064C8.53493 8.19599 8.53493 8.50018 8.51068 8.75322C8.48635 9.00637 8.46337 9.20344 8.44144 9.34459C8.41951 9.48573 8.38672 9.60011 8.34302 9.68769C8.29923 9.77529 8.2701 9.82884 8.2555 9.84827C8.24092 9.8677 8.22877 9.87995 8.21912 9.88476C8.15595 9.909 8.09026 9.92135 8.02227 9.92135C7.95418 9.92135 7.87162 9.88724 7.77445 9.81907C7.6773 9.7509 7.57648 9.65726 7.47198 9.538C7.36749 9.41871 7.24964 9.25202 7.11838 9.0379C6.98723 8.82377 6.85115 8.5707 6.71023 8.27869L6.59363 8.06691C6.52074 7.93068 6.42117 7.7323 6.29481 7.47197C6.16839 7.21154 6.05664 6.95962 5.95949 6.71627C5.92066 6.61406 5.86232 6.53625 5.78458 6.48271L5.7481 6.46074C5.72385 6.44131 5.68491 6.42067 5.6315 6.39868C5.57801 6.37672 5.5222 6.36097 5.46384 6.35127L3.4666 6.3658C3.26251 6.3658 3.12403 6.41211 3.05111 6.50459L3.02193 6.54835C3.00735 6.57271 3 6.61163 3 6.6652C3 6.71875 3.01458 6.78446 3.04376 6.86227C3.33532 7.54858 3.65239 8.21047 3.99496 8.84804C4.33753 9.48561 4.63522 9.99919 4.88784 10.3883C5.14052 10.7777 5.39807 11.1452 5.6605 11.4907C5.92293 11.8363 6.09665 12.0577 6.18164 12.155C6.26673 12.2525 6.33357 12.3254 6.38216 12.3741L6.56442 12.5492C6.68104 12.6661 6.8523 12.806 7.07828 12.969C7.3043 13.1321 7.55453 13.2927 7.82908 13.451C8.10369 13.609 8.42316 13.738 8.78766 13.8378C9.15211 13.9376 9.50683 13.9777 9.85188 13.9584H10.6902C10.8602 13.9437 10.989 13.8901 11.0765 13.7977L11.1055 13.7611C11.125 13.7321 11.1433 13.6869 11.1601 13.6262C11.1772 13.5654 11.1857 13.4984 11.1857 13.4255C11.1807 13.2162 11.1966 13.0276 11.2329 12.8597C11.2693 12.6919 11.3107 12.5653 11.357 12.4801C11.4033 12.395 11.4555 12.3231 11.5136 12.2649C11.5719 12.2065 11.6134 12.1711 11.6378 12.159C11.662 12.1467 11.6813 12.1384 11.6959 12.1334C11.8125 12.0945 11.9498 12.1322 12.1079 12.2467C12.2658 12.361 12.414 12.5023 12.5525 12.6701C12.691 12.8381 12.8575 13.0266 13.0518 13.2358C13.2463 13.4451 13.4163 13.6007 13.562 13.7031L13.7078 13.7907C13.8051 13.8492 13.9314 13.9027 14.087 13.9514C14.2422 14 14.3782 14.0122 14.495 13.9878L16.361 13.9587C16.5456 13.9587 16.6892 13.9281 16.7911 13.8674C16.8931 13.8065 16.9538 13.7395 16.9733 13.6666C16.9928 13.5936 16.9939 13.5108 16.977 13.4183C16.9597 13.3259 16.9427 13.2614 16.9258 13.2249Z" fill="white"/>
</svg>
