<svg width="20" height="20" viewBox="0 0 20 20" fill="none" xmlns="http://www.w3.org/2000/svg">
<path d="M3.5 20L16.5 20C18.433 20 20 18.433 20 16.5L20 3.5C20 1.567 18.433 0 16.5 0L3.5 0C1.567 0 0 1.567 0 3.5L0 16.5C0 18.433 1.567 20 3.5 20Z" fill="#8A8E91"/>
<path d="M12.3082 15.7702C12.3082 17.0215 12.3051 18.2698 12.3114 19.5211C12.3114 19.6581 12.274 19.6954 12.137 19.6923C11.0725 19.6861 10.011 19.6861 8.94642 19.6923C8.80011 19.6923 8.75342 19.6581 8.75342 19.5055C8.75965 17.0246 8.75653 14.5468 8.75653 12.0659C8.75653 11.8169 8.78455 11.8481 8.5293 11.8449C8.07794 11.8449 7.62659 11.8418 7.17523 11.8481C7.06628 11.8481 7.03516 11.8138 7.03516 11.7049C7.03827 10.9173 7.03827 10.1267 7.03516 9.33913C7.03516 9.23019 7.06628 9.19595 7.17523 9.19906C7.64838 9.20528 8.11841 9.19595 8.59156 9.20528C8.71918 9.2084 8.75965 9.17416 8.75965 9.04031C8.75342 8.37728 8.75965 7.71114 8.75653 7.04811C8.75342 6.49715 8.83747 5.96486 9.11451 5.47926C9.41334 4.95009 9.86158 4.58589 10.4157 4.34932C10.8826 4.1501 11.3744 4.05671 11.8787 4.0287C12.8779 3.97267 13.8802 4.01936 14.8794 4.00068C14.9915 3.99757 15.0195 4.03804 15.0195 4.14387C15.0164 4.96254 15.0164 5.78432 15.0195 6.60298C15.0195 6.7275 14.9728 6.74617 14.8638 6.74617C14.288 6.74306 13.7121 6.74306 13.1362 6.74306C12.6569 6.74306 12.3114 7.08858 12.3114 7.56173C12.3114 8.05044 12.3176 8.53603 12.3082 9.02474C12.3051 9.16482 12.3518 9.19906 12.4857 9.19906C13.2732 9.19283 14.0639 9.19906 14.8514 9.19283C14.9821 9.19283 15.0257 9.23019 15.0101 9.36092C14.9635 9.76248 14.923 10.164 14.8794 10.5656C14.8389 10.9516 14.7705 11.3344 14.7082 11.7173C14.6895 11.8263 14.6553 11.8512 14.5557 11.8512C13.8802 11.8481 13.2078 11.8481 12.5324 11.8512C12.2678 11.8512 12.3051 11.8169 12.3051 12.0846C12.3082 13.3111 12.3082 14.5406 12.3082 15.7702Z" fill="white"/>
</svg>
