<svg width="20" height="20" viewBox="0 0 20 20" fill="none" xmlns="http://www.w3.org/2000/svg">
<path d="M5.83171 0C2.61587 0 0 2.61829 0 5.83496V14.1683C0 17.3841 2.61829 20 5.83496 20H14.1683C17.3841 20 20 17.3817 20 14.165V5.83171C20 2.61587 17.3817 0 14.165 0H5.83171ZM15.8333 3.33333C16.2933 3.33333 16.6667 3.70667 16.6667 4.16667C16.6667 4.62667 16.2933 5 15.8333 5C15.3733 5 15 4.62667 15 4.16667C15 3.70667 15.3733 3.33333 15.8333 3.33333ZM10 5C12.7575 5 15 7.2425 15 10C15 12.7575 12.7575 15 10 15C7.2425 15 5 12.7575 5 10C5 7.2425 7.2425 5 10 5ZM10 6.66667C9.11594 6.66667 8.2681 7.01786 7.64298 7.64298C7.01786 8.2681 6.66667 9.11594 6.66667 10C6.66667 10.8841 7.01786 11.7319 7.64298 12.357C8.2681 12.9821 9.11594 13.3333 10 13.3333C10.8841 13.3333 11.7319 12.9821 12.357 12.357C12.9821 11.7319 13.3333 10.8841 13.3333 10C13.3333 9.11594 12.9821 8.2681 12.357 7.64298C11.7319 7.01786 10.8841 6.66667 10 6.66667Z" fill="#8A8E91"/>
</svg>
