<svg width="20" height="20" viewBox="0 0 20 20" fill="none" xmlns="http://www.w3.org/2000/svg">
<path d="M3.5 20L16.5 20C18.433 20 20 18.433 20 16.5L20 3.5C20 1.567 18.433 0 16.5 0L3.5 0C1.567 0 0 1.567 0 3.5L0 16.5C0 18.433 1.567 20 3.5 20Z" fill="#8A8E91"/>
<path fill-rule="evenodd" clip-rule="evenodd" d="M15.88 6.94133C15.88 6.94133 15.7626 6.05956 15.403 5.67133C14.9466 5.1615 14.4351 5.15912 14.2008 5.12954C12.5215 5 10.0026 5 10.0026 5H9.99738C9.99738 5 7.4785 5 5.79925 5.12954C5.5645 5.15912 5.05338 5.1615 4.59662 5.67133C4.237 6.05966 4.12 6.94133 4.12 6.94133C4.12 6.94133 4 7.97707 4 9.01231V9.98322C4 11.0189 4.12 12.0542 4.12 12.0542C4.12 12.0542 4.237 12.936 4.59662 13.3242C5.05338 13.834 5.653 13.818 5.92 13.8713C6.88 13.9696 10 14 10 14C10 14 12.5215 13.996 14.2008 13.8665C14.4351 13.8365 14.9466 13.8341 15.403 13.3243C15.7626 12.936 15.88 12.0543 15.88 12.0543C15.88 12.0543 16 11.019 16 9.98322V9.01231C16 7.97707 15.88 6.94133 15.88 6.94133ZM8.761 11.1597L8.76062 7.56442L12.0029 9.36827L8.761 11.1597Z" fill="white"/>
</svg>
