<svg width="20" height="20" viewBox="0 0 20 20" fill="none" xmlns="http://www.w3.org/2000/svg">
<path d="M3.5 20L16.5 20C18.433 20 20 18.433 20 16.5L20 3.5C20 1.567 18.433 0 16.5 0L3.5 0C1.567 0 0 1.567 0 3.5L0 16.5C0 18.433 1.567 20 3.5 20Z" fill="#8A8E91"/>
<path fill-rule="evenodd" clip-rule="evenodd" d="M9.79022 3C9.75497 5.83769 9.56127 7.43264 8.49695 8.49694C7.43263 9.56129 5.83771 9.755 3 9.79022V10.2098C5.83771 10.245 7.43263 10.4388 8.49695 11.5031C9.56127 12.5674 9.75497 14.1623 9.79022 17H10.2098C10.245 14.1623 10.4387 12.5674 11.503 11.5031C12.5674 10.4388 14.1623 10.245 17 10.2098V9.79022C14.1623 9.75495 12.5674 9.56129 11.503 8.49694C10.4387 7.43264 10.245 5.83769 10.2098 3H9.79022Z" fill="white"/>
</svg>
