<svg width="24" height="24" viewBox="0 0 24 24" fill="none" xmlns="http://www.w3.org/2000/svg">
<rect width="24" height="24" fill="#E5E5E5"/>
<g clip-path="url(#clip0_0_1)">
<rect width="1920" height="4928" transform="translate(-1499 -37)" fill="white"/>
<rect width="24" height="24" rx="12" fill="#8A8E91"/>
<path d="M13.8253 15.1712C12.891 15.8368 11.7483 16.2287 10.5135 16.2287C7.35835 16.2287 4.80005 13.67 4.80005 10.5143C4.80005 7.35867 7.35835 4.79999 10.5135 4.79999C13.6687 4.79999 16.227 7.35867 16.227 10.5143C16.227 11.7493 15.8351 12.8922 15.1697 13.8266L18.9238 17.5813C19.2935 17.9511 19.2908 18.5433 18.9238 18.9097L18.9083 18.9252C18.5427 19.2909 17.9464 19.2923 17.5801 18.9252L13.826 15.1705L13.8253 15.1712ZM10.5135 14.8841C12.9266 14.8841 14.8827 12.9278 14.8827 10.5143C14.8827 8.10087 12.9266 6.14454 10.5135 6.14454C8.10043 6.14454 6.1444 8.10087 6.1444 10.5143C6.1444 12.9278 8.10043 14.8841 10.5135 14.8841Z" fill="white"/>
</g>
<defs>
<clipPath id="clip0_0_1">
<rect width="1920" height="4928" fill="white" transform="translate(-1499 -37)"/>
</clipPath>
</defs>
</svg>
