<svg width="26" height="29" viewBox="0 0 26 29" fill="none" xmlns="http://www.w3.org/2000/svg">
<rect width="26" height="29" fill="#E5E5E5"/>
<g id="&#208;&#144;&#208;&#179;&#209;&#128;&#208;&#190;&#209;&#129;&#208;&#191;&#208;&#181;&#209;&#134;&#208;&#183;&#208;&#176;&#208;&#191;&#209;&#135;&#208;&#176;&#209;&#129;&#209;&#130;&#209;&#140;" clip-path="url(#clip0_0_1)">
<rect width="1920" height="4928" transform="translate(-1564 -36)" fill="white"/>
<g id="Group 10">
<g id="Vector">
<mask id="path-1-inside-1_0_1" fill="white">
<path d="M25.2465 6.40326C24.7629 4.64497 23.8053 3.25606 22.4028 2.27349C20.6327 1.02988 18.5967 0.591538 16.8387 0.323116C14.406 -0.0462731 12.2031 -0.0979873 10.1018 0.163048C8.1334 0.409307 6.65108 0.800859 5.29934 1.43375C2.64907 2.67489 1.05793 4.6819 0.571889 7.39814C0.334912 8.71809 0.175314 9.90999 0.0834255 11.0477C-0.129371 13.6778 0.0640804 16.0049 0.673451 18.1621C1.26831 20.2652 2.30569 21.7674 3.84605 22.7549C4.23778 23.0061 4.74076 23.1883 5.2268 23.3631C5.50247 23.4616 5.77088 23.5577 5.99093 23.6636C6.19405 23.7596 6.19405 23.7768 6.19164 23.9492C6.17471 25.444 6.19164 28.3745 6.19164 28.3745L6.19647 29H7.29914L7.47808 28.8227C7.59657 28.7094 10.3291 26.0203 11.3036 24.9367L11.4366 24.7865C11.6034 24.5895 11.6034 24.5895 11.7751 24.587C13.0906 24.5599 14.4351 24.5082 15.7699 24.4344C17.3876 24.3457 19.2617 24.1856 21.0269 23.437C22.6422 22.7499 23.8223 21.659 24.5308 20.1962C25.2707 18.6694 25.7084 17.017 25.8728 15.143C26.163 11.848 25.9575 8.98898 25.2465 6.40326ZM19.4285 19.2161C19.0223 19.8884 18.4177 20.3563 17.7044 20.6592C17.1821 20.8808 16.6501 20.834 16.135 20.6124C11.8235 18.7532 8.4405 15.8251 6.20615 11.6141C5.74428 10.7473 5.42509 9.80163 5.05753 8.88555C4.98257 8.69839 4.98741 8.47676 4.95355 8.2699C4.98499 6.78988 6.09975 5.95506 7.2266 5.70388C7.65703 5.60538 8.03909 5.76052 8.35829 6.07327C9.24332 6.93025 9.94217 7.9276 10.4693 9.04562C10.699 9.53567 10.5951 9.96909 10.2033 10.3336C10.1211 10.4099 10.0365 10.4788 9.947 10.5478C9.05229 11.2324 8.92171 11.752 9.39808 12.7838C10.2106 14.5397 11.5599 15.7192 13.3034 16.4506C13.7628 16.6427 14.1957 16.5467 14.5463 16.1674C14.5947 16.1182 14.6479 16.0689 14.6817 16.0098C15.3685 14.8426 16.3672 14.9583 17.2885 15.6232C17.893 16.0615 18.4806 16.5245 19.0779 16.9702C19.9895 17.6524 19.9823 18.2926 19.4285 19.2161ZM13.7096 7.5656C13.5065 7.5656 13.3034 7.58284 13.1027 7.61731C12.7641 7.67395 12.4474 7.44247 12.3893 7.09771C12.3337 6.75541 12.561 6.43034 12.8995 6.3737C13.1655 6.32692 13.4388 6.30475 13.7096 6.30475C16.3913 6.30475 18.5725 8.52601 18.5725 11.257C18.5725 11.5353 18.5507 11.8136 18.5048 12.082C18.454 12.3898 18.1928 12.609 17.8954 12.609C17.8616 12.609 17.8277 12.6065 17.7914 12.5991C17.4553 12.5425 17.228 12.2174 17.2836 11.8751C17.3175 11.6732 17.3344 11.4663 17.3344 11.257C17.3344 9.22292 15.707 7.5656 13.7096 7.5656ZM16.7154 11.3481C16.7154 11.6954 16.4373 11.9786 16.0963 11.9786C15.7554 11.9786 15.4773 11.6954 15.4773 11.3481C15.4773 10.3065 14.643 9.45687 13.6202 9.45687C13.2792 9.45687 13.0011 9.17367 13.0011 8.82645C13.0011 8.47922 13.2792 8.19602 13.6202 8.19602C15.3274 8.19602 16.7154 9.60955 16.7154 11.3481ZM20.2507 12.7494C20.1854 13.0424 19.9291 13.2394 19.6461 13.2394C19.6002 13.2394 19.5543 13.2345 19.5083 13.2246C19.1746 13.1458 18.9666 12.8085 19.0416 12.4686C19.1311 12.0672 19.177 11.651 19.177 11.2324C19.177 8.16893 16.7275 5.67433 13.7193 5.67433C13.3082 5.67433 12.8995 5.72112 12.5054 5.81223C12.1717 5.89104 11.8404 5.67679 11.7654 5.33695C11.6881 4.99712 11.8984 4.65974 12.2321 4.5834C12.7158 4.47012 13.2163 4.41348 13.7193 4.41348C17.4118 4.41348 20.4151 7.47202 20.4151 11.2324C20.4151 11.7446 20.3595 12.2544 20.2507 12.7494Z"/>
</mask>
<path d="M25.2465 6.40326C24.7629 4.64497 23.8053 3.25606 22.4028 2.27349C20.6327 1.02988 18.5967 0.591538 16.8387 0.323116C14.406 -0.0462731 12.2031 -0.0979873 10.1018 0.163048C8.1334 0.409307 6.65108 0.800859 5.29934 1.43375C2.64907 2.67489 1.05793 4.6819 0.571889 7.39814C0.334912 8.71809 0.175314 9.90999 0.0834255 11.0477C-0.129371 13.6778 0.0640804 16.0049 0.673451 18.1621C1.26831 20.2652 2.30569 21.7674 3.84605 22.7549C4.23778 23.0061 4.74076 23.1883 5.2268 23.3631C5.50247 23.4616 5.77088 23.5577 5.99093 23.6636C6.19405 23.7596 6.19405 23.7768 6.19164 23.9492C6.17471 25.444 6.19164 28.3745 6.19164 28.3745L6.19647 29H7.29914L7.47808 28.8227C7.59657 28.7094 10.3291 26.0203 11.3036 24.9367L11.4366 24.7865C11.6034 24.5895 11.6034 24.5895 11.7751 24.587C13.0906 24.5599 14.4351 24.5082 15.7699 24.4344C17.3876 24.3457 19.2617 24.1856 21.0269 23.437C22.6422 22.7499 23.8223 21.659 24.5308 20.1962C25.2707 18.6694 25.7084 17.017 25.8728 15.143C26.163 11.848 25.9575 8.98898 25.2465 6.40326ZM19.4285 19.2161C19.0223 19.8884 18.4177 20.3563 17.7044 20.6592C17.1821 20.8808 16.6501 20.834 16.135 20.6124C11.8235 18.7532 8.4405 15.8251 6.20615 11.6141C5.74428 10.7473 5.42509 9.80163 5.05753 8.88555C4.98257 8.69839 4.98741 8.47676 4.95355 8.2699C4.98499 6.78988 6.09975 5.95506 7.2266 5.70388C7.65703 5.60538 8.03909 5.76052 8.35829 6.07327C9.24332 6.93025 9.94217 7.9276 10.4693 9.04562C10.699 9.53567 10.5951 9.96909 10.2033 10.3336C10.1211 10.4099 10.0365 10.4788 9.947 10.5478C9.05229 11.2324 8.92171 11.752 9.39808 12.7838C10.2106 14.5397 11.5599 15.7192 13.3034 16.4506C13.7628 16.6427 14.1957 16.5467 14.5463 16.1674C14.5947 16.1182 14.6479 16.0689 14.6817 16.0098C15.3685 14.8426 16.3672 14.9583 17.2885 15.6232C17.893 16.0615 18.4806 16.5245 19.0779 16.9702C19.9895 17.6524 19.9823 18.2926 19.4285 19.2161ZM13.7096 7.5656C13.5065 7.5656 13.3034 7.58284 13.1027 7.61731C12.7641 7.67395 12.4474 7.44247 12.3893 7.09771C12.3337 6.75541 12.561 6.43034 12.8995 6.3737C13.1655 6.32692 13.4388 6.30475 13.7096 6.30475C16.3913 6.30475 18.5725 8.52601 18.5725 11.257C18.5725 11.5353 18.5507 11.8136 18.5048 12.082C18.454 12.3898 18.1928 12.609 17.8954 12.609C17.8616 12.609 17.8277 12.6065 17.7914 12.5991C17.4553 12.5425 17.228 12.2174 17.2836 11.8751C17.3175 11.6732 17.3344 11.4663 17.3344 11.257C17.3344 9.22292 15.707 7.5656 13.7096 7.5656ZM16.7154 11.3481C16.7154 11.6954 16.4373 11.9786 16.0963 11.9786C15.7554 11.9786 15.4773 11.6954 15.4773 11.3481C15.4773 10.3065 14.643 9.45687 13.6202 9.45687C13.2792 9.45687 13.0011 9.17367 13.0011 8.82645C13.0011 8.47922 13.2792 8.19602 13.6202 8.19602C15.3274 8.19602 16.7154 9.60955 16.7154 11.3481ZM20.2507 12.7494C20.1854 13.0424 19.9291 13.2394 19.6461 13.2394C19.6002 13.2394 19.5543 13.2345 19.5083 13.2246C19.1746 13.1458 18.9666 12.8085 19.0416 12.4686C19.1311 12.0672 19.177 11.651 19.177 11.2324C19.177 8.16893 16.7275 5.67433 13.7193 5.67433C13.3082 5.67433 12.8995 5.72112 12.5054 5.81223C12.1717 5.89104 11.8404 5.67679 11.7654 5.33695C11.6881 4.99712 11.8984 4.65974 12.2321 4.5834C12.7158 4.47012 13.2163 4.41348 13.7193 4.41348C17.4118 4.41348 20.4151 7.47202 20.4151 11.2324C20.4151 11.7446 20.3595 12.2544 20.2507 12.7494Z" stroke="#404541" stroke-width="2" mask="url(#path-1-inside-1_0_1)"/>
</g>
</g>
</g>
<defs>
<clipPath id="clip0_0_1">
<rect width="1920" height="4928" fill="white" transform="translate(-1564 -36)"/>
</clipPath>
</defs>
</svg>
