<svg width="24" height="24" viewBox="0 0 24 24" fill="none" xmlns="http://www.w3.org/2000/svg">
<rect width="24" height="24" fill="#E5E5E5"/>
<g clip-path="url(#clip0_0_1)">
<rect width="1920" height="4928" transform="translate(-1654 -37)" fill="white"/>
<circle cx="12" cy="12" r="11.5" stroke="#404541"/>
<mask id="path-2-inside-1_0_1" fill="white">
<path d="M13.4097 13.6469C13.6172 13.4402 13.6172 13.4402 13.8664 13.1922C14.0975 12.9622 14.2794 12.7815 14.3953 12.6666C14.9729 12.0941 15.7444 12.0941 16.3231 12.6675C16.861 13.2005 17.4058 13.745 17.9602 14.3035C18.5457 14.8936 18.542 15.6656 17.9541 16.2589C17.8378 16.3762 17.6472 16.5159 17.3882 16.6827C17.3304 16.7199 17.2697 16.7581 17.2063 16.7972C17.0358 16.9024 16.8538 17.0094 16.6718 17.1127C16.5627 17.1747 16.4775 17.2219 16.4356 17.2446C15.77 17.6285 14.6889 17.7116 13.9955 17.4437C13.9258 17.4225 13.8014 17.3802 13.6299 17.3151C13.3475 17.2078 13.0338 17.0741 12.6965 16.912C11.7345 16.4499 10.7728 15.8527 9.8742 15.1051C9.51334 14.8049 9.16934 14.4854 8.84464 14.1459C8.58267 13.8721 8.33369 13.5867 8.09734 13.2911C7.31918 12.3178 6.70816 11.2762 6.24481 10.2342C6.08239 9.86894 5.94987 9.52924 5.84492 9.22354C5.7812 9.03794 5.74045 8.90336 5.72917 8.8562C5.46818 8.13748 5.61613 7.05562 6.05123 6.41898C6.07842 6.3769 6.12608 6.30471 6.18881 6.21231C6.29335 6.05835 6.402 5.9043 6.50964 5.75977C6.55634 5.69706 6.60196 5.63736 6.6463 5.5811C6.76004 5.43679 6.86328 5.3175 6.95597 5.22631C7.53452 4.65732 8.30471 4.65812 8.88431 5.22727C9.12056 5.45911 10.1411 6.48035 10.5103 6.85271C11.1077 7.45577 11.1091 8.21803 10.5124 8.81767C10.4229 8.90765 10.2284 9.10248 9.96023 9.371C9.73243 9.59903 9.73243 9.59903 9.54314 9.78846C9.44547 9.88618 9.4108 9.92088 9.38833 9.94336C9.42632 10.0398 9.4893 10.1889 9.57515 10.3745C9.74132 10.7338 9.93173 11.0928 10.1424 11.4261C10.3719 11.7894 10.6114 12.0988 10.8559 12.3372C11.0818 12.5574 11.3512 12.7705 11.6549 12.9745C12.0094 13.2124 12.3911 13.4254 12.773 13.6096C12.9708 13.705 13.1296 13.7744 13.2377 13.8182C13.2623 13.7937 13.2992 13.757 13.4097 13.6469ZM9.37211 9.90136C9.37259 9.90264 9.37308 9.90394 9.37358 9.90525C9.37319 9.90407 9.37266 9.90273 9.37211 9.90136ZM17.4821 14.778C16.9291 14.2208 16.3856 13.6776 15.8491 13.1459C15.5329 12.8327 15.1845 12.8327 14.8694 13.145C14.7539 13.2595 14.5723 13.44 14.3428 13.6683C14.0924 13.9175 14.0924 13.9175 13.885 14.1241C13.7191 14.2893 13.7191 14.2893 13.6777 14.3307C13.5127 14.495 13.2371 14.5477 13.0319 14.4612C12.9186 14.4172 12.7261 14.3348 12.4803 14.2162C12.0717 14.0191 11.6629 13.791 11.2795 13.5337C10.9439 13.3084 10.6431 13.0704 10.3858 12.8195C10.0993 12.5402 9.82864 12.1905 9.573 11.786C9.34524 11.4255 9.14148 11.0413 8.96384 10.6573C8.85706 10.4265 8.78219 10.2457 8.74459 10.1459C8.65914 9.93328 8.71683 9.66244 8.87748 9.5017C8.91532 9.46384 8.91532 9.46384 9.06672 9.31235C9.25597 9.12297 9.25597 9.12297 9.48305 8.89565C9.75153 8.62686 9.94583 8.43218 10.0349 8.34263C10.37 8.00591 10.3694 7.66749 10.0319 7.32684C9.66484 6.95663 8.646 5.93709 8.41248 5.70792C8.09465 5.39582 7.74454 5.39546 7.4283 5.70647C7.35916 5.7745 7.27301 5.87404 7.1753 5.99802C7.13494 6.04923 7.09301 6.10409 7.04983 6.16207C6.94867 6.2979 6.84547 6.44423 6.74605 6.59065C6.68641 6.67848 6.64153 6.74647 6.61216 6.79172C6.29315 7.25864 6.17619 8.1139 6.37107 8.65429C6.38723 8.71476 6.42346 8.83444 6.48196 9.00483C6.58069 9.29243 6.70608 9.61383 6.86025 9.96053C7.30146 10.9527 7.8837 11.9453 8.62342 12.8705C8.8475 13.1508 9.08339 13.4211 9.33136 13.6804C9.63805 14.001 9.96336 14.3032 10.305 14.5874C11.1581 15.2971 12.0733 15.8655 12.9882 16.3049C13.3078 16.4584 13.604 16.5847 13.8691 16.6854C14.026 16.7451 14.1362 16.7825 14.2146 16.8073C14.7414 17.0101 15.6099 16.9433 16.1064 16.657C16.1523 16.6321 16.2339 16.5869 16.3391 16.5271C16.5145 16.4274 16.6898 16.3245 16.8527 16.224C16.9125 16.1871 16.9696 16.1511 17.0236 16.1164C17.2433 15.9749 17.404 15.8572 17.4757 15.7848C17.8044 15.4531 17.8061 15.1044 17.4821 14.778Z"/>
</mask>
<path d="M13.4097 13.6469C13.6172 13.4402 13.6172 13.4402 13.8664 13.1922C14.0975 12.9622 14.2794 12.7815 14.3953 12.6666C14.9729 12.0941 15.7444 12.0941 16.3231 12.6675C16.861 13.2005 17.4058 13.745 17.9602 14.3035C18.5457 14.8936 18.542 15.6656 17.9541 16.2589C17.8378 16.3762 17.6472 16.5159 17.3882 16.6827C17.3304 16.7199 17.2697 16.7581 17.2063 16.7972C17.0358 16.9024 16.8538 17.0094 16.6718 17.1127C16.5627 17.1747 16.4775 17.2219 16.4356 17.2446C15.77 17.6285 14.6889 17.7116 13.9955 17.4437C13.9258 17.4225 13.8014 17.3802 13.6299 17.3151C13.3475 17.2078 13.0338 17.0741 12.6965 16.912C11.7345 16.4499 10.7728 15.8527 9.8742 15.1051C9.51334 14.8049 9.16934 14.4854 8.84464 14.1459C8.58267 13.8721 8.33369 13.5867 8.09734 13.2911C7.31918 12.3178 6.70816 11.2762 6.24481 10.2342C6.08239 9.86894 5.94987 9.52924 5.84492 9.22354C5.7812 9.03794 5.74045 8.90336 5.72917 8.8562C5.46818 8.13748 5.61613 7.05562 6.05123 6.41898C6.07842 6.3769 6.12608 6.30471 6.18881 6.21231C6.29335 6.05835 6.402 5.9043 6.50964 5.75977C6.55634 5.69706 6.60196 5.63736 6.6463 5.5811C6.76004 5.43679 6.86328 5.3175 6.95597 5.22631C7.53452 4.65732 8.30471 4.65812 8.88431 5.22727C9.12056 5.45911 10.1411 6.48035 10.5103 6.85271C11.1077 7.45577 11.1091 8.21803 10.5124 8.81767C10.4229 8.90765 10.2284 9.10248 9.96023 9.371C9.73243 9.59903 9.73243 9.59903 9.54314 9.78846C9.44547 9.88618 9.4108 9.92088 9.38833 9.94336C9.42632 10.0398 9.4893 10.1889 9.57515 10.3745C9.74132 10.7338 9.93173 11.0928 10.1424 11.4261C10.3719 11.7894 10.6114 12.0988 10.8559 12.3372C11.0818 12.5574 11.3512 12.7705 11.6549 12.9745C12.0094 13.2124 12.3911 13.4254 12.773 13.6096C12.9708 13.705 13.1296 13.7744 13.2377 13.8182C13.2623 13.7937 13.2992 13.757 13.4097 13.6469ZM9.37211 9.90136C9.37259 9.90264 9.37308 9.90394 9.37358 9.90525C9.37319 9.90407 9.37266 9.90273 9.37211 9.90136ZM17.4821 14.778C16.9291 14.2208 16.3856 13.6776 15.8491 13.1459C15.5329 12.8327 15.1845 12.8327 14.8694 13.145C14.7539 13.2595 14.5723 13.44 14.3428 13.6683C14.0924 13.9175 14.0924 13.9175 13.885 14.1241C13.7191 14.2893 13.7191 14.2893 13.6777 14.3307C13.5127 14.495 13.2371 14.5477 13.0319 14.4612C12.9186 14.4172 12.7261 14.3348 12.4803 14.2162C12.0717 14.0191 11.6629 13.791 11.2795 13.5337C10.9439 13.3084 10.6431 13.0704 10.3858 12.8195C10.0993 12.5402 9.82864 12.1905 9.573 11.786C9.34524 11.4255 9.14148 11.0413 8.96384 10.6573C8.85706 10.4265 8.78219 10.2457 8.74459 10.1459C8.65914 9.93328 8.71683 9.66244 8.87748 9.5017C8.91532 9.46384 8.91532 9.46384 9.06672 9.31235C9.25597 9.12297 9.25597 9.12297 9.48305 8.89565C9.75153 8.62686 9.94583 8.43218 10.0349 8.34263C10.37 8.00591 10.3694 7.66749 10.0319 7.32684C9.66484 6.95663 8.646 5.93709 8.41248 5.70792C8.09465 5.39582 7.74454 5.39546 7.4283 5.70647C7.35916 5.7745 7.27301 5.87404 7.1753 5.99802C7.13494 6.04923 7.09301 6.10409 7.04983 6.16207C6.94867 6.2979 6.84547 6.44423 6.74605 6.59065C6.68641 6.67848 6.64153 6.74647 6.61216 6.79172C6.29315 7.25864 6.17619 8.1139 6.37107 8.65429C6.38723 8.71476 6.42346 8.83444 6.48196 9.00483C6.58069 9.29243 6.70608 9.61383 6.86025 9.96053C7.30146 10.9527 7.8837 11.9453 8.62342 12.8705C8.8475 13.1508 9.08339 13.4211 9.33136 13.6804C9.63805 14.001 9.96336 14.3032 10.305 14.5874C11.1581 15.2971 12.0733 15.8655 12.9882 16.3049C13.3078 16.4584 13.604 16.5847 13.8691 16.6854C14.026 16.7451 14.1362 16.7825 14.2146 16.8073C14.7414 17.0101 15.6099 16.9433 16.1064 16.657C16.1523 16.6321 16.2339 16.5869 16.3391 16.5271C16.5145 16.4274 16.6898 16.3245 16.8527 16.224C16.9125 16.1871 16.9696 16.1511 17.0236 16.1164C17.2433 15.9749 17.404 15.8572 17.4757 15.7848C17.8044 15.4531 17.8061 15.1044 17.4821 14.778Z" fill="white"/>
<path d="M13.4097 13.6469L12.7041 12.9383L12.704 12.9384L13.4097 13.6469ZM13.8664 13.1922L13.161 12.4834L13.1609 12.4835L13.8664 13.1922ZM14.3953 12.6666L15.0992 13.3769L15.0993 13.3769L14.3953 12.6666ZM16.3231 12.6675L17.027 11.9572L17.027 11.9571L16.3231 12.6675ZM17.9602 14.3035L18.67 13.5991L18.6699 13.5991L17.9602 14.3035ZM17.9541 16.2589L18.6644 16.9628L18.6645 16.9627L17.9541 16.2589ZM17.3882 16.6827L17.9295 17.5235L17.3882 16.6827ZM17.2063 16.7972L17.7314 17.6483L17.2063 16.7972ZM16.6718 17.1127L17.1658 17.9822L16.6718 17.1127ZM16.4356 17.2446L15.9599 16.365L15.9478 16.3715L15.9359 16.3784L16.4356 17.2446ZM13.9955 17.4437L14.3559 16.5109L14.3218 16.4977L14.2868 16.4871L13.9955 17.4437ZM13.6299 17.3151L13.2747 18.2499L13.6299 17.3151ZM12.6965 16.912L12.2635 17.8134L12.6965 16.912ZM9.8742 15.1051L10.5137 14.3364L9.8742 15.1051ZM8.84464 14.1459L9.56727 13.4547H9.56727L8.84464 14.1459ZM8.09734 13.2911L8.87841 12.6667L8.09734 13.2911ZM6.24481 10.2342L5.33108 10.6405L6.24481 10.2342ZM5.84492 9.22354L6.79073 8.89883L5.84492 9.22354ZM5.72917 8.8562L6.70173 8.62354L6.68851 8.56828L6.66912 8.51487L5.72917 8.8562ZM6.05123 6.41898L6.87684 6.98323L6.88414 6.97253L6.89117 6.96165L6.05123 6.41898ZM6.18881 6.21231L5.36149 5.65058L5.36149 5.65058L6.18881 6.21231ZM6.50964 5.75977L7.31165 6.35707L6.50964 5.75977ZM6.6463 5.5811L5.8609 4.96211L5.8609 4.96211L6.6463 5.5811ZM6.95597 5.22631L6.25478 4.51334L6.25463 4.51349L6.95597 5.22631ZM8.88431 5.22727L8.18367 5.94078L8.18389 5.941L8.88431 5.22727ZM10.5103 6.85271L11.2207 6.14891L11.2204 6.14864L10.5103 6.85271ZM10.5124 8.81767L9.80354 8.11232L9.80341 8.11244L10.5124 8.81767ZM9.96023 9.371L10.6677 10.0777L10.6677 10.0777L9.96023 9.371ZM9.54314 9.78846L10.2505 10.4953L10.2505 10.4953L9.54314 9.78846ZM9.38833 9.94336L8.68104 9.23644L8.21779 9.69994L8.45785 10.3097L9.38833 9.94336ZM9.57515 10.3745L8.66754 10.7943L9.57515 10.3745ZM10.1424 11.4261L9.29703 11.9604L10.1424 11.4261ZM10.8559 12.3372L11.554 11.6212L10.8559 12.3372ZM11.6549 12.9745L12.2123 12.1442L11.6549 12.9745ZM12.773 13.6096L13.2074 12.7089H13.2074L12.773 13.6096ZM13.2377 13.8182L12.8622 14.7451L13.475 14.9933L13.9435 14.5267L13.2377 13.8182ZM9.37211 9.90136L10.2993 9.52666L8.43666 10.2548L9.37211 9.90136ZM9.37358 9.90525L8.43869 10.2602L10.3222 9.58874L9.37358 9.90525ZM17.4821 14.778L18.192 14.0736L18.1919 14.0735L17.4821 14.778ZM15.8491 13.1459L16.5529 12.4356L16.5529 12.4356L15.8491 13.1459ZM14.8694 13.145L15.5733 13.8553L15.5734 13.8553L14.8694 13.145ZM14.3428 13.6683L13.6375 12.9595L13.6374 12.9596L14.3428 13.6683ZM13.885 14.1241L13.1794 13.4155L13.1793 13.4156L13.885 14.1241ZM13.6777 14.3307L14.3834 15.0391L14.3835 15.039L13.6777 14.3307ZM13.0319 14.4612L13.4205 13.5397L13.4071 13.5341L13.3935 13.5288L13.0319 14.4612ZM12.4803 14.2162L12.9148 13.3155V13.3155L12.4803 14.2162ZM11.2795 13.5337L11.8369 12.7034L11.2795 13.5337ZM10.3858 12.8195L11.0838 12.1035L10.3858 12.8195ZM9.573 11.786L8.72766 12.3202L9.573 11.786ZM8.96384 10.6573L8.05623 11.0771L8.96384 10.6573ZM8.74459 10.1459L9.68027 9.79312L9.67649 9.78308L9.67249 9.77313L8.74459 10.1459ZM8.87748 9.5017L8.17022 8.79475L8.17017 8.79479L8.87748 9.5017ZM9.06672 9.31235L9.77404 10.0192L9.77408 10.0192L9.06672 9.31235ZM9.48305 8.89565L10.1905 9.60239L10.1906 9.60235L9.48305 8.89565ZM10.0349 8.34263L9.32606 7.63727L9.32594 7.63739L10.0349 8.34263ZM10.0319 7.32684L10.7423 6.62304L10.742 6.62277L10.0319 7.32684ZM8.41248 5.70792L7.71183 6.42143L7.71205 6.42165L8.41248 5.70792ZM7.4283 5.70647L6.72711 4.9935L6.72696 4.99365L7.4283 5.70647ZM7.1753 5.99802L7.9607 6.61701L7.1753 5.99802ZM7.04983 6.16207L6.24781 5.56477L6.24781 5.56477L7.04983 6.16207ZM6.74605 6.59065L5.91873 6.02892L5.91873 6.02892L6.74605 6.59065ZM6.61216 6.79172L7.43785 7.35585L7.44453 7.34607L7.45098 7.33613L6.61216 6.79172ZM6.37107 8.65429L7.33715 8.39607L7.32618 8.35503L7.31177 8.31505L6.37107 8.65429ZM6.48196 9.00483L5.53615 9.32954H5.53615L6.48196 9.00483ZM6.86025 9.96053L5.94652 10.3669L6.86025 9.96053ZM8.62342 12.8705L9.40448 12.2461L8.62342 12.8705ZM9.33136 13.6804L8.60873 14.3716H8.60873L9.33136 13.6804ZM10.305 14.5874L10.9445 13.8186H10.9445L10.305 14.5874ZM12.9882 16.3049L12.5552 17.2063L12.9882 16.3049ZM13.8691 16.6854L13.5139 17.6202L13.8691 16.6854ZM14.2146 16.8073L14.5739 15.8741L14.5453 15.863L14.5161 15.8538L14.2146 16.8073ZM16.1064 16.657L15.6288 15.7785L15.6178 15.7845L15.6069 15.7907L16.1064 16.657ZM16.3391 16.5271L16.8331 17.3966L16.3391 16.5271ZM16.8527 16.224L17.3777 17.075H17.3777L16.8527 16.224ZM17.0236 16.1164L17.5649 16.9572H17.5649L17.0236 16.1164ZM17.4757 15.7848L18.186 16.4887L18.1861 16.4886L17.4757 15.7848ZM14.1154 14.3554C14.3228 14.1489 14.3227 14.1489 14.5718 13.901L13.1609 12.4835C12.9117 12.7315 12.9117 12.7316 12.7041 12.9383L14.1154 14.3554ZM14.5717 13.9011C14.8028 13.6711 14.984 13.4911 15.0992 13.3769L13.6914 11.9563C13.5747 12.072 13.3922 12.2533 13.161 12.4834L14.5717 13.9011ZM15.0993 13.3769C15.2262 13.251 15.3188 13.2373 15.3585 13.2373C15.3983 13.2374 15.4914 13.2512 15.6193 13.3778L17.027 11.9571C16.5761 11.5104 15.9941 11.2375 15.3591 11.2373C14.724 11.2372 14.1419 11.5098 13.6913 11.9564L15.0993 13.3769ZM15.6193 13.3778C16.1551 13.9087 16.6979 14.4513 17.2505 15.008L18.6699 13.5991C18.1137 13.0387 17.567 12.4922 17.027 11.9572L15.6193 13.3778ZM17.2504 15.0079C17.3852 15.1437 17.3973 15.2388 17.3972 15.2764C17.397 15.3151 17.3831 15.4144 17.2438 15.555L18.6645 16.9627C19.113 16.5101 19.3949 15.9267 19.3972 15.2836C19.3995 14.6393 19.1208 14.0534 18.67 13.5991L17.2504 15.0079ZM17.2438 15.555C17.21 15.5891 17.0993 15.6793 16.8468 15.8419L17.9295 17.5235C18.1951 17.3525 18.4656 17.1634 18.6644 16.9628L17.2438 15.555ZM16.8468 15.8419C16.7951 15.8752 16.7398 15.91 16.6813 15.9461L17.7314 17.6483C17.7995 17.6062 17.8657 17.5646 17.9295 17.5235L16.8468 15.8419ZM16.6813 15.9461C16.523 16.0437 16.3517 16.1445 16.1779 16.2432L17.1658 17.9822C17.3558 17.8742 17.5485 17.7611 17.7314 17.6483L16.6813 15.9461ZM16.1779 16.2432C16.0721 16.3033 15.9935 16.3468 15.9599 16.365L16.9113 18.1242C16.9616 18.097 17.0533 18.0461 17.1658 17.9822L16.1779 16.2432ZM15.9359 16.3784C15.7635 16.4779 15.4799 16.565 15.1461 16.5918C14.811 16.6187 14.5259 16.5766 14.3559 16.5109L13.6351 18.3765C14.1584 18.5787 14.7607 18.6291 15.3059 18.5854C15.8523 18.5416 16.4421 18.3953 16.9352 18.1108L15.9359 16.3784ZM14.2868 16.4871C14.246 16.4746 14.1441 16.4407 13.985 16.3803L13.2747 18.2499C13.4587 18.3198 13.6057 18.3704 13.7041 18.4003L14.2868 16.4871ZM13.985 16.3803C13.7303 16.2835 13.4426 16.161 13.1295 16.0106L12.2635 17.8134C12.6251 17.9871 12.9647 18.1321 13.2747 18.2499L13.985 16.3803ZM13.1295 16.0106C12.2355 15.5812 11.3443 15.0273 10.5137 14.3364L9.23465 15.8739C10.2013 16.6781 11.2334 17.3186 12.2635 17.8134L13.1295 16.0106ZM10.5137 14.3364C10.1809 14.0595 9.86476 13.7657 9.56727 13.4547L8.122 14.8372C8.47391 15.2051 8.84579 15.5504 9.23465 15.8739L10.5137 14.3364ZM9.56727 13.4547C9.32636 13.2028 9.09682 12.9399 8.87841 12.6667L7.31628 13.9156C7.57056 14.2336 7.83899 14.5413 8.122 14.8372L9.56727 13.4547ZM8.87841 12.6667C8.1579 11.7655 7.59007 10.7983 7.15854 9.82788L5.33108 10.6405C5.82625 11.754 6.48047 12.8701 7.31628 13.9156L8.87841 12.6667ZM7.15854 9.82788C7.00745 9.48811 6.88576 9.17563 6.79073 8.89883L4.8991 9.54824C5.01398 9.88285 5.15732 10.2498 5.33108 10.6405L7.15854 9.82788ZM6.79073 8.89883C6.76158 8.81392 6.73847 8.74295 6.72206 8.6903C6.71383 8.66391 6.70778 8.6437 6.70373 8.62971C6.69889 8.61296 6.6992 8.61296 6.70173 8.62354L4.75662 9.08886C4.78016 9.18726 4.83516 9.36199 4.8991 9.54824L6.79073 8.89883ZM6.66912 8.51487C6.60782 8.34608 6.57666 8.06642 6.62036 7.73919C6.66391 7.41315 6.76821 7.14217 6.87684 6.98323L5.22563 5.85473C4.89915 6.33242 4.71192 6.9207 4.63797 7.47443C4.56417 8.02697 4.58953 8.64761 4.78923 9.19753L6.66912 8.51487ZM6.89117 6.96165C6.91334 6.92734 6.95665 6.86165 7.01614 6.77404L5.36149 5.65058C5.29551 5.74776 5.2435 5.82645 5.21129 5.8763L6.89117 6.96165ZM7.01614 6.77404C7.11424 6.62954 7.21439 6.48767 7.31165 6.35707L5.70762 5.16247C5.58961 5.32092 5.47245 5.48716 5.36149 5.65058L7.01614 6.77404ZM7.31165 6.35707C7.35366 6.30066 7.39372 6.24828 7.4317 6.20009L5.8609 4.96211C5.8102 5.02644 5.75902 5.09345 5.70762 5.16247L7.31165 6.35707ZM7.4317 6.20009C7.53221 6.07256 7.60639 5.98923 7.65732 5.93913L6.25463 4.51349C6.12017 4.64578 5.98787 4.80102 5.8609 4.96211L7.4317 6.20009ZM7.65716 5.93928C7.78427 5.81427 7.87747 5.79996 7.9191 5.79999C7.96099 5.80002 8.05528 5.81471 8.18367 5.94078L9.58496 4.51376C9.13374 4.07068 8.55313 3.8004 7.9204 3.79999C7.28738 3.79958 6.70621 4.06936 6.25478 4.51334L7.65716 5.93928ZM8.18389 5.941C8.41488 6.16768 9.43127 7.18474 9.80014 7.55678L11.2204 6.14864C10.8509 5.77597 9.82624 4.75055 9.58473 4.51354L8.18389 5.941ZM9.79987 7.55651C9.94851 7.70654 9.95909 7.80601 9.95913 7.83774C9.95917 7.86875 9.94952 7.96561 9.80354 8.11232L11.2212 9.52303C11.6719 9.07009 11.96 8.486 11.9591 7.8352C11.9583 7.18512 11.6695 6.60194 11.2207 6.14891L9.79987 7.55651ZM9.80341 8.11244C9.71479 8.20154 9.52113 8.39558 9.25272 8.6643L10.6677 10.0777C10.9358 9.80937 11.131 9.61376 11.2214 9.52291L9.80341 8.11244ZM9.25276 8.66425C9.02499 8.89226 9.02503 8.89222 8.83578 9.0816L10.2505 10.4953C10.4398 10.3058 10.4399 10.3058 10.6677 10.0777L9.25276 8.66425ZM8.83582 9.08157C8.73814 9.17931 8.70349 9.21398 8.68104 9.23644L10.0956 10.6503C10.1181 10.6278 10.1528 10.5931 10.2505 10.4953L8.83582 9.08157ZM8.45785 10.3097C8.50404 10.427 8.57492 10.5941 8.66754 10.7943L10.4828 9.95471C10.4037 9.78376 10.3486 9.65266 10.3188 9.57703L8.45785 10.3097ZM8.66754 10.7943C8.84871 11.186 9.05938 11.5843 9.29703 11.9604L10.9877 10.8919C10.8041 10.6013 10.6339 10.2815 10.4828 9.95471L8.66754 10.7943ZM9.29703 11.9604C9.55457 12.3679 9.84138 12.7447 10.1579 13.0533L11.554 11.6212C11.3814 11.4529 11.1893 11.2108 10.9877 10.8919L9.29703 11.9604ZM10.1579 13.0533C10.4359 13.3243 10.7549 13.5747 11.0975 13.8047L12.2123 12.1442C11.9474 11.9664 11.7277 11.7905 11.554 11.6212L10.1579 13.0533ZM11.0975 13.8047C11.4973 14.0731 11.9212 14.309 12.3385 14.5103L13.2074 12.7089C12.861 12.5418 12.5215 12.3518 12.2123 12.1442L11.0975 13.8047ZM12.3385 14.5103C12.5528 14.6136 12.7313 14.692 12.8622 14.7451L13.6132 12.8914C13.5278 12.8568 13.3888 12.7964 13.2074 12.7089L12.3385 14.5103ZM13.9435 14.5267C13.968 14.5022 14.0049 14.4655 14.1154 14.3554L12.704 12.9384C12.5935 13.0485 12.5565 13.0853 12.5319 13.1098L13.9435 14.5267ZM8.43666 10.2548C8.43731 10.2566 8.43799 10.2583 8.43869 10.2602L10.3085 9.5503C10.3082 9.54953 10.3079 9.54873 10.3076 9.5479L8.43666 10.2548ZM10.3222 9.58874C10.3111 9.55566 10.3004 9.52941 10.2993 9.52666L8.44496 10.2761C8.44421 10.2742 8.44182 10.2683 8.43882 10.2604C8.43592 10.2528 8.4308 10.2392 8.42499 10.2218L10.3222 9.58874ZM18.1919 14.0735C17.637 13.5145 17.0915 12.9693 16.5529 12.4356L15.1452 13.8562C15.6796 14.3858 16.2212 14.9271 16.7724 15.4825L18.1919 14.0735ZM16.5529 12.4356C16.2674 12.1527 15.8624 11.9112 15.3595 11.9109C14.8562 11.9106 14.451 12.1518 14.1654 12.4348L15.5734 13.8553C15.603 13.8259 15.5294 13.911 15.3582 13.9109C15.1873 13.9108 15.1146 13.8259 15.1452 13.8563L16.5529 12.4356ZM14.1655 12.4347C14.0492 12.55 13.867 12.7311 13.6375 12.9595L15.0482 14.3772C15.2776 14.1489 15.4586 13.9691 15.5733 13.8553L14.1655 12.4347ZM13.6374 12.9596C13.387 13.2088 13.3869 13.2089 13.1794 13.4155L14.5907 14.8327C14.798 14.6262 14.7979 14.6263 15.0483 14.3771L13.6374 12.9596ZM13.1793 13.4156C13.0134 13.5808 13.0134 13.5809 12.9718 13.6223L14.3835 15.039C14.4249 14.9978 14.4248 14.9979 14.5907 14.8326L13.1793 13.4156ZM12.9719 13.6222C13.0458 13.5486 13.1211 13.5199 13.1748 13.5092C13.2273 13.4988 13.3138 13.4948 13.4205 13.5397L12.6433 15.3826C13.2288 15.6295 13.9355 15.4854 14.3834 15.0391L12.9719 13.6222ZM13.3935 13.5288C13.3105 13.4967 13.1428 13.4255 12.9148 13.3155L12.0459 15.1169C12.3094 15.244 12.5267 15.3378 12.6703 15.3935L13.3935 13.5288ZM12.9148 13.3155C12.5419 13.1357 12.1751 12.9305 11.8369 12.7034L10.7221 14.3639C11.1506 14.6516 11.6015 14.9026 12.0459 15.1169L12.9148 13.3155ZM11.8369 12.7034C11.541 12.5048 11.2896 12.3041 11.0838 12.1035L9.68767 13.5355C9.99658 13.8367 10.3468 14.1119 10.7221 14.3639L11.8369 12.7034ZM11.0838 12.1035C10.8681 11.8931 10.6448 11.61 10.4183 11.2517L8.72766 12.3202C9.01251 12.7709 9.3305 13.1873 9.68767 13.5355L11.0838 12.1035ZM10.4183 11.2517C10.2175 10.9339 10.034 10.5888 9.87145 10.2375L8.05623 11.0771C8.24899 11.4938 8.47301 11.9172 8.72766 12.3202L10.4183 11.2517ZM9.87145 10.2375C9.7719 10.0223 9.70718 9.86447 9.68027 9.79312L7.8089 10.4988C7.85721 10.6269 7.94223 10.8306 8.05623 11.0771L9.87145 10.2375ZM9.67249 9.77313C9.71216 9.87187 9.70898 9.95426 9.69774 10.0082C9.68655 10.062 9.65738 10.136 9.58479 10.2086L8.17017 8.79479C7.73072 9.23449 7.57967 9.92886 7.81668 10.5188L9.67249 9.77313ZM9.58474 10.2087C9.62262 10.1708 9.62265 10.1707 9.77404 10.0192L8.3594 8.60546C8.20799 8.75696 8.20802 8.75693 8.17022 8.79475L9.58474 10.2087ZM9.77408 10.0192C9.96337 9.82978 9.96341 9.82974 10.1905 9.60239L8.77558 8.1889C8.54853 8.4162 8.54856 8.41616 8.35936 8.6055L9.77408 10.0192ZM10.1906 9.60235C10.4588 9.33376 10.6539 9.1383 10.7439 9.04786L9.32594 7.63739C9.23773 7.72607 9.04422 7.91996 8.77554 8.18895L10.1906 9.60235ZM10.7438 9.04799C11.0217 8.76871 11.287 8.36004 11.2856 7.83353C11.2842 7.30895 11.0185 6.9018 10.7423 6.62304L9.32148 8.03063C9.38279 8.09252 9.2861 8.02491 9.2856 7.83889C9.2851 7.65093 9.38322 7.57983 9.32606 7.63727L10.7438 9.04799ZM10.742 6.62277C10.3747 6.25226 9.35169 5.22853 9.1129 4.99419L7.71205 6.42165C7.94031 6.64565 8.95501 7.66101 9.32175 8.03091L10.742 6.62277ZM9.11312 4.99441C8.8262 4.71266 8.42159 4.47421 7.92115 4.47353C7.41998 4.47285 7.01449 4.71087 6.72711 4.9935L8.12949 6.41945C8.15835 6.39107 8.08603 6.47376 7.91844 6.47353C7.75156 6.4733 7.68092 6.39108 7.71183 6.42143L9.11312 4.99441ZM6.72696 4.99365C6.6145 5.1043 6.49864 5.24105 6.3899 5.37903L7.9607 6.61701C8.04737 6.50703 8.10382 6.4447 8.12965 6.4193L6.72696 4.99365ZM6.3899 5.37903C6.34314 5.43836 6.29564 5.50054 6.24781 5.56477L7.85185 6.75937C7.89038 6.70763 7.92674 6.6601 7.9607 6.61701L6.3899 5.37903ZM6.24781 5.56477C6.13623 5.71459 6.02451 5.87312 5.91873 6.02892L7.57337 7.15238C7.66642 7.01533 7.76111 6.8812 7.85185 6.75937L6.24781 5.56477ZM5.91873 6.02892C5.85549 6.12206 5.80675 6.19583 5.77335 6.2473L7.45098 7.33613C7.47631 7.29711 7.51734 7.2349 7.57337 7.15238L5.91873 6.02892ZM5.78648 6.22759C5.51304 6.6278 5.36588 7.12153 5.30747 7.56484C5.2491 8.0079 5.26257 8.52825 5.43036 8.99353L7.31177 8.31505C7.28468 8.23995 7.25919 8.06247 7.29034 7.82607C7.32145 7.58992 7.39227 7.42256 7.43785 7.35585L5.78648 6.22759ZM5.40498 8.91251C5.42938 9.00379 5.47362 9.14741 5.53615 9.32954L7.42777 8.68012C7.37331 8.52147 7.34508 8.42572 7.33715 8.39607L5.40498 8.91251ZM5.53615 9.32954C5.64484 9.64615 5.78106 9.99478 5.94652 10.3669L7.77398 9.55421C7.63109 9.23289 7.51655 8.9387 7.42777 8.68012L5.53615 9.32954ZM5.94652 10.3669C6.41951 11.4305 7.04494 12.4976 7.84236 13.495L9.40448 12.2461C8.72246 11.393 8.18341 10.475 7.77398 9.55421L5.94652 10.3669ZM7.84236 13.495C8.08435 13.7977 8.33969 14.0903 8.60873 14.3716L10.054 12.9891C9.82709 12.7519 9.61064 12.5039 9.40448 12.2461L7.84236 13.495ZM8.60873 14.3716C8.94265 14.7207 9.29584 15.0486 9.66541 15.3561L10.9445 13.8186C10.6309 13.5577 10.3334 13.2813 10.054 12.9891L8.60873 14.3716ZM9.66541 15.3561C10.5867 16.1225 11.5724 16.7342 12.5552 17.2063L13.4212 15.4035C12.5743 14.9967 11.7295 14.4717 10.9445 13.8186L9.66541 15.3561ZM12.5552 17.2063C12.8989 17.3714 13.2211 17.509 13.5139 17.6202L14.2242 15.7506C13.9869 15.6605 13.7166 15.5455 13.4212 15.4035L12.5552 17.2063ZM13.5139 17.6202C13.6866 17.6858 13.8147 17.7296 13.9131 17.7607L14.5161 15.8538C14.4577 15.8354 14.3655 15.8043 14.2242 15.7506L13.5139 17.6202ZM13.8553 17.7405C14.3003 17.9118 14.8093 17.9472 15.2502 17.9125C15.6917 17.8778 16.1902 17.7631 16.6059 17.5233L15.6069 15.7907C15.5261 15.8373 15.3421 15.8991 15.0935 15.9187C14.8443 15.9382 14.6557 15.9056 14.5739 15.8741L13.8553 17.7405ZM16.5841 17.5356C16.6367 17.507 16.7238 17.4586 16.8331 17.3966L15.8452 15.6576C15.744 15.7151 15.668 15.7572 15.6288 15.7785L16.5841 17.5356ZM16.8331 17.3966C17.0165 17.2924 17.2025 17.1832 17.3777 17.075L16.3277 15.3729C16.1771 15.4657 16.0125 15.5625 15.8452 15.6576L16.8331 17.3966ZM17.3777 17.075C17.4423 17.0352 17.5049 16.9958 17.5649 16.9572L16.4822 15.2756C16.4343 15.3064 16.3827 15.3389 16.3277 15.3729L17.3777 17.075ZM17.5649 16.9572C17.7793 16.8192 18.0276 16.6485 18.186 16.4887L16.7654 15.0809C16.7802 15.0659 16.7851 15.063 16.7718 15.0738C16.7605 15.0831 16.7416 15.0979 16.7138 15.1182C16.658 15.1592 16.5805 15.2123 16.4822 15.2756L17.5649 16.9572ZM18.1861 16.4886C18.4673 16.2048 18.7206 15.7984 18.7236 15.2854C18.7267 14.7695 18.4757 14.3595 18.192 14.0736L16.7723 15.4824C16.8125 15.5229 16.7226 15.4505 16.7237 15.2734C16.7247 15.0993 16.8128 15.0331 16.7654 15.0809L18.1861 16.4886Z" fill="#404541" mask="url(#path-2-inside-1_0_1)"/>
</g>
<defs>
<clipPath id="clip0_0_1">
<rect width="1920" height="4928" fill="white" transform="translate(-1654 -37)"/>
</clipPath>
</defs>
</svg>
